<svg width="35" height="35" viewBox="0 0 35 35" fill="none" xmlns="http://www.w3.org/2000/svg">
<path d="M17.4915 35C7.79072 34.9808 -0.00109188 27.1194 1.14764e-07 17.4935C0.0010921 7.8377 7.85531 -0.00857205 17.5171 7.02855e-06C27.137 0.00858611 35.0083 7.80572 35 17.5113C34.9917 27.1795 27.1707 34.99 17.4916 35H17.4915ZM16.1669 18.847C16.2421 18.847 16.3036 18.847 16.365 18.847C17.8157 18.847 19.2664 18.8459 20.7171 18.8478C21.0868 18.8482 21.4535 18.8266 21.8195 18.7674C22.5193 18.6545 23.1761 18.4219 23.7917 18.0753C24.5862 17.628 25.2495 17.0314 25.7842 16.292C26.278 15.6094 26.6183 14.8559 26.7952 14.0346C26.9519 13.3074 26.9756 12.5741 26.8489 11.8351C26.7293 11.1366 26.5031 10.479 26.1567 9.8633C25.6588 8.97825 24.9808 8.25901 24.1314 7.70215C23.6107 7.3607 23.0489 7.10567 22.4502 6.93955C21.8715 6.77904 21.2782 6.71727 20.6768 6.72117C19.8346 6.72663 18.9922 6.72257 18.1498 6.72257C17.0527 6.72257 15.9555 6.72335 14.8586 6.72226C14.6422 6.72211 14.433 6.7572 14.2395 6.85298C13.7254 7.1077 13.4627 7.52948 13.4574 8.09959C13.4496 8.92615 13.4552 9.75286 13.4552 10.5796C13.4552 12.3732 13.4552 14.1667 13.4552 15.9604C13.4552 16.02 13.4519 16.0797 13.45 16.1471C13.3666 16.1471 13.3045 16.1471 13.2422 16.1471C12.4467 16.1471 11.6512 16.1451 10.8556 16.1491C10.7216 16.1497 10.585 16.1628 10.4546 16.1922C9.55881 16.3934 9.11921 17.4461 9.64274 18.2382C9.91106 18.6442 10.3004 18.8459 10.7887 18.8468C11.6155 18.8482 12.4421 18.8472 13.2689 18.8475C13.329 18.8475 13.3889 18.8504 13.4466 18.852V21.5322H13.27C12.4485 21.5322 11.6269 21.5304 10.8054 21.5343C10.682 21.5349 10.5552 21.5477 10.4361 21.5787C9.47535 21.83 9.09893 22.9704 9.72557 23.7399C9.99701 24.0732 10.3616 24.2329 10.7915 24.2339C11.613 24.2358 12.4346 24.2345 13.2561 24.2345C13.3171 24.2345 13.378 24.2345 13.4557 24.2345V24.4342C13.4557 25.6872 13.4543 26.94 13.4575 28.193C13.4578 28.3269 13.4692 28.4645 13.5018 28.5936C13.7589 29.6134 14.9883 29.9429 15.7281 29.2542C16.022 28.9806 16.158 28.6357 16.1585 28.2377C16.16 26.969 16.1593 25.7006 16.1593 24.432C16.1593 24.3711 16.1593 24.3105 16.1593 24.2347C16.2394 24.2347 16.3008 24.2347 16.3619 24.2347C18.5197 24.2347 20.6776 24.2347 22.8354 24.2342C23.3007 24.2342 23.6854 24.0639 23.9675 23.6865C24.4058 23.1002 24.2901 22.3226 23.7762 21.8712C23.5123 21.6394 23.1999 21.5312 22.8469 21.5315C20.6838 21.533 18.5209 21.5322 16.3579 21.5322C16.2969 21.5322 16.2357 21.5322 16.1672 21.5322V18.847H16.1669Z" fill="#460808"/>
<path d="M16.5098 15.8496V9.26048C16.5496 9.2565 16.5884 9.24899 16.6273 9.24899C18.1596 9.24869 19.692 9.24041 21.2241 9.25328C21.9697 9.25956 22.6279 9.5365 23.2007 10.0092C23.8163 10.5173 24.215 11.1631 24.3719 11.9468C24.5141 12.6567 24.4109 13.3393 24.0854 13.9842C23.7463 14.656 23.2361 15.1636 22.5654 15.5055C22.1027 15.7414 21.6088 15.8505 21.0894 15.8499C19.884 15.8485 18.6786 15.8494 17.4732 15.8494C17.2127 15.8494 16.9522 15.8494 16.6917 15.8494C16.6363 15.8494 16.581 15.8494 16.5098 15.8494V15.8496Z" fill="#460808"/>
</svg>
