<svg width="18" height="18" viewBox="0 0 18 18" fill="none" xmlns="http://www.w3.org/2000/svg">
<path d="M0.000679687 8.99007C0.000679687 7.65276 -0.000295222 6.31545 0.000979659 4.97814C0.00187957 3.99771 0.273354 3.09617 0.806704 2.27502C1.29371 1.52534 1.93842 0.947532 2.73417 0.539957C3.15151 0.326159 3.59112 0.175952 4.05247 0.0889628C4.37487 0.0282202 4.69929 2.3725e-05 5.02738 0.000173707C7.69458 0.00137356 10.3618 -0.00200103 13.0289 0.00212347C14.1718 0.00384825 15.1958 0.365979 16.0926 1.07277C16.9381 1.73913 17.5097 2.59425 17.8098 3.6292C17.8891 3.90254 17.9419 4.18091 17.972 4.46422C17.9921 4.65343 18 4.84248 18 5.03258C17.9995 7.6997 18.001 10.3668 17.9989 13.0339C17.9982 13.9591 17.75 14.8173 17.2678 15.6061C16.8043 16.3644 16.1799 16.957 15.4021 17.3868C14.9329 17.646 14.4334 17.8232 13.9062 17.9197C13.6136 17.9734 13.3183 18.0002 13.0199 18.0001C10.3302 17.9987 7.64051 17.9989 4.95089 17.9997C4.56423 17.9998 4.18424 17.9498 3.80935 17.8586C3.15773 17.6999 2.56049 17.4224 2.02451 17.0198C1.05741 16.2933 0.42484 15.3428 0.135892 14.1667C0.0424508 13.7869 -0.000520201 13.401 4.75018e-06 13.0094C0.00180458 11.6696 0.000679687 10.3299 0.000679687 8.98999V8.99007ZM8.99324 13.9947C11.735 14.0063 13.992 11.7728 13.9959 9.00874C13.9999 6.25898 11.776 4.03063 9.0503 4.00431C6.24707 3.97723 4.0026 6.25523 4.00313 8.99989C4.00365 11.7579 6.25022 14.0006 8.99316 13.9947H8.99324ZM14.9974 3.99816C15.5834 3.99523 15.9953 3.51454 15.9959 3.0046C15.9965 2.46647 15.5579 2.00768 15.0031 2.00483C14.4666 2.00205 14.0028 2.43347 14.0028 3.00265C14.0028 3.55309 14.4478 3.99748 14.9975 3.99816H14.9974Z" fill="#460808"/>
</svg>
