<svg width="14" height="15" viewBox="0 0 14 15" fill="none" xmlns="http://www.w3.org/2000/svg">
<path d="M9.71856 15C9.07558 14.9871 8.45552 14.8585 7.85267 14.641C7.26341 14.4284 6.71298 14.1389 6.18831 13.7988C5.65727 13.4547 5.16215 13.0641 4.69106 12.6425C4.1515 12.1597 3.64874 11.6409 3.17074 11.0977C2.80259 10.6794 2.44914 10.2491 2.11721 9.80147C1.64278 9.16165 1.21212 8.49451 0.855958 7.78101C0.560385 7.1888 0.32148 6.57569 0.168786 5.93061C0.104236 5.65795 0.0568034 5.38234 0.0288078 5.10355C-0.0219613 4.59801 -0.00726244 4.0946 0.0859594 3.59462C0.222069 2.86432 0.509519 2.20007 0.963395 1.60965C1.20409 1.29652 1.48216 1.02111 1.79702 0.781571C1.91471 0.692052 2.02196 0.588965 2.13418 0.4923C2.24756 0.394621 2.35587 0.290761 2.48043 0.206456C2.60411 0.122731 2.73572 0.056244 2.88227 0.0226381C3.08646 -0.0241977 3.28253 0.00313121 3.47096 0.0908155C3.64855 0.173478 3.79897 0.293899 3.93702 0.430689C4.11732 0.609341 4.27383 0.807789 4.41458 1.01807C4.66795 1.39642 4.91565 1.77855 5.14469 2.17221C5.28158 2.40745 5.39651 2.65336 5.47798 2.91385C5.54674 3.13355 5.58372 3.35793 5.5683 3.58839C5.55181 3.83449 5.47039 4.05882 5.33012 4.26205C5.23985 4.39285 5.12985 4.50545 5.01066 4.60955C4.84211 4.75677 4.67491 4.90573 4.50341 5.04947C4.42841 5.11234 4.34501 5.1654 4.26402 5.22083C4.12394 5.31668 3.9904 5.41976 3.88194 5.55177C3.75642 5.70459 3.67979 5.87851 3.65276 6.07474C3.62307 6.29052 3.65092 6.50099 3.70735 6.709C3.77286 6.95057 3.87353 7.17794 3.99083 7.39831C4.21702 7.82321 4.49494 8.21354 4.79371 8.58958C5.15659 9.04625 5.5419 9.48323 5.95753 9.89292C6.24808 10.1793 6.55317 10.4489 6.89149 10.6787C7.11072 10.8277 7.34014 10.9577 7.59336 11.041C7.76612 11.0978 7.94251 11.1294 8.12561 11.1164C8.32734 11.1022 8.50793 11.0326 8.67165 10.916C8.78112 10.838 8.87922 10.7473 8.96698 10.6461C9.08346 10.5119 9.21275 10.3916 9.34804 10.2768C9.48676 10.1591 9.62176 10.0369 9.76169 9.92059C9.93711 9.77477 10.1332 9.66579 10.356 9.60935C10.5975 9.54812 10.838 9.55889 11.0774 9.6232C11.361 9.6994 11.6156 9.83609 11.8584 9.99697C12.0722 10.1387 12.2725 10.2982 12.4661 10.466C12.7144 10.6811 12.9643 10.8944 13.2093 11.113C13.4032 11.2859 13.5802 11.4754 13.7301 11.6884C13.8344 11.8365 13.9198 11.9941 13.9672 12.1704C14.0339 12.4181 13.9979 12.651 13.8684 12.8709C13.7841 13.0141 13.6718 13.1331 13.5477 13.242C13.3927 13.3779 13.2368 13.5127 13.0829 13.6498C12.9976 13.7258 12.9172 13.8072 12.8316 13.883C12.6041 14.0844 12.3551 14.256 12.0902 14.4048C11.673 14.6394 11.2293 14.8036 10.7602 14.8995C10.5533 14.9418 10.3446 14.972 10.1336 14.9833C9.99532 14.9907 9.85679 14.9944 9.71841 14.9999L9.71856 15Z" fill="#460808"/>
</svg>
