<svg width="19" height="17" viewBox="0 0 19 17" fill="none" xmlns="http://www.w3.org/2000/svg">
<path d="M0.680958 9.01758C1.06082 9.20346 3.70342 10.5333 4.6294 10.3792C5.0652 10.3066 5.57261 10.1213 5.99404 9.88658C6.66059 9.51481 7.29848 9.07722 7.91988 8.62259C9.60992 7.38648 11.282 6.12171 12.9685 4.88018C13.2416 4.67958 13.5498 4.53088 13.8501 4.37675C13.9217 4.34035 14.0787 4.34422 14.1038 4.38914C14.1489 4.46969 14.1432 4.60136 14.1203 4.70127C14.0988 4.79498 14.0386 4.88715 13.9755 4.95995C13.7232 5.25272 13.4738 5.54935 13.2043 5.82275C11.8017 7.24319 10.389 8.65124 8.99138 10.0771C8.7692 10.304 8.57067 10.5767 8.42445 10.8656C8.1091 11.4883 8.23309 12.0126 8.77207 12.4091C10.7345 13.8536 12.6976 15.2973 14.67 16.7262C15.5394 17.3559 16.6826 16.8463 16.9105 15.7403C17.0223 15.2005 17.1033 14.6529 17.1871 14.1069C17.5942 11.4642 18.02 8.82473 18.3934 6.1767C18.6356 4.45808 18.8112 2.72706 18.9918 0.999138C19.0578 0.369466 18.7195 -0.0201098 18.1282 0.00080182C17.7304 0.0155174 17.3104 0.0705072 16.9442 0.226957C14.0823 1.44525 11.2598 2.77737 8.42445 4.06615C5.98472 5.17446 3.73926 6.1767 1.12461 7.42985C0.680958 7.64248 0.518874 7.71171 0.25378 7.89995C-0.0952656 8.14779 -0.0737532 8.45607 0.25379 8.73876C0.382801 8.85029 0.530446 8.94401 0.680958 9.01758Z" fill="#460808"/>
</svg>
