<svg width="17" height="17" viewBox="0 0 17 17" fill="none" xmlns="http://www.w3.org/2000/svg">
<path d="M0 16.9997C0.127386 16.5352 0.24868 16.0935 0.369973 15.6521C0.635269 14.6869 0.902225 13.7222 1.16226 12.7556C1.18109 12.6861 1.16808 12.5902 1.13318 12.5268C0.342834 11.0923 -0.0257553 9.55559 0.0905538 7.92649C0.287725 5.16178 1.55439 2.98266 3.84928 1.41945C5.40505 0.359663 7.14885 -0.0853142 9.02835 0.0133859C12.8054 0.211889 16.0335 2.96915 16.8136 6.65386C17.7862 11.2492 14.8579 15.7348 10.2496 16.6827C8.29173 17.0855 6.41417 16.8147 4.63298 15.9071C4.52636 15.8528 4.43442 15.8445 4.3206 15.8746C2.91686 16.2443 1.51202 16.6099 0.10717 16.9766C0.0808624 16.9835 0.0540007 16.9881 0 17V16.9997ZM5.7465 4.54146C5.41696 4.50176 5.16218 4.59936 4.94424 4.82791C4.2007 5.60814 4.07303 6.50471 4.41642 7.49529C4.61498 8.06764 4.96584 8.5526 5.31145 9.04114C6.48229 10.6962 7.99542 11.8637 10.0009 12.3517C10.7519 12.5345 11.4517 12.5188 12.1177 12.0655C12.6591 11.6972 12.8319 11.1825 12.8286 10.5704C12.8281 10.456 12.7768 10.3788 12.6769 10.3289C12.5326 10.257 12.3894 10.1825 12.2437 10.1136C11.8109 9.90821 11.3808 9.69675 10.9427 9.50348C10.693 9.3932 10.6079 9.43621 10.447 9.64326C10.2438 9.90462 10.0325 10.1602 9.81898 10.4133C9.69049 10.5657 9.58609 10.585 9.4011 10.512C8.15576 10.0196 7.19649 9.19415 6.51026 8.0511C6.37235 7.82172 6.39229 7.75445 6.56233 7.55098C6.74704 7.32987 6.91457 7.09388 7.07851 6.85705C7.15356 6.7487 7.14138 6.62271 7.09015 6.5003C6.88439 6.009 6.67116 5.52019 6.47953 5.02366C6.343 4.67021 6.13226 4.46261 5.74678 4.54173L5.7465 4.54146Z" fill="#460808"/>
</svg>
