<svg width="40" height="38" viewBox="0 0 40 38" fill="none" xmlns="http://www.w3.org/2000/svg">
<path d="M10.8265 22.9738L27.3582 20.7456L18.7602 3.42782L10.8265 22.9738ZM32.3998 30.9095L27.9835 21.9965L10.3966 24.0293L7.5827 30.9095H6.25391L18.1349 2.13778C18.0306 1.95535 17.9004 1.82504 17.744 1.74686C17.5877 1.64261 17.4053 1.5514 17.1969 1.47322L17.0796 1.43413V0.730469L20.3625 0.96502L35.2919 30.9095H32.3998Z" fill="#460808"/>
<path d="M0.000343594 18.9766C-0.0308088 13.6171 2.0564 9.11439 6.26197 5.46864C10.4987 1.82288 15.0625 0 19.9534 0C24.8755 0 29.4393 1.82288 33.6449 5.46864C37.8816 9.08323 40 13.5859 40 18.9766C40 24.4297 37.8816 28.9635 33.6449 32.5781C29.4393 36.1927 24.8755 38 19.9534 38C15.0625 38 10.5143 36.1927 6.3087 32.5781C2.10313 28.9323 0.000343594 24.3985 0.000343594 18.9766ZM3.97227 18.9299C3.97227 24.196 5.49874 28.5273 8.55167 31.9237C11.6046 35.2891 15.4052 36.9717 19.9534 36.9717C24.5328 36.9717 28.349 35.2891 31.4019 31.9237C34.486 28.5584 36.0281 24.2427 36.0281 18.9766C36.0281 13.7417 34.486 9.44157 31.4019 6.07626C28.349 2.71095 24.5328 1.02829 19.9534 1.02829C15.4052 1.02829 11.589 2.72653 8.50494 6.123C5.45201 9.48832 3.94112 13.7573 3.97227 18.9299Z" fill="#460808"/>
</svg>
