<svg width="375" height="46" viewBox="0 0 375 46" fill="none" xmlns="http://www.w3.org/2000/svg">
<path d="M57.2078 17.519L68.6288 15.98L62.6888 4.019L57.2078 17.519ZM72.1118 23L69.0608 16.844L56.9108 18.248L54.9668 23H54.0488L62.2568 3.128C62.1848 3.002 62.0948 2.912 61.9868 2.858C61.8788 2.786 61.7528 2.723 61.6088 2.669L61.5278 2.642V2.156L63.7958 2.318L74.1098 23H72.1118ZM76.5453 23V2.264H78.3003V9.662H88.8843V2.264H90.6393V23H88.8843V10.31H78.3003V23H76.5453ZM96.2312 17.519L107.652 15.98L101.712 4.019L96.2312 17.519ZM111.135 23L108.084 16.844L95.9342 18.248L93.9902 23H93.0722L101.28 3.128C101.208 3.002 101.118 2.912 101.01 2.858C100.902 2.786 100.776 2.723 100.632 2.669L100.551 2.642V2.156L102.819 2.318L113.133 23H111.135ZM133.902 20.84C133.236 21.434 132.291 22.019 131.067 22.595C129.843 23.171 128.385 23.459 126.693 23.459C123.705 23.459 121.014 22.496 118.62 20.57C116.226 18.644 115.029 16.034 115.029 12.74C115.029 9.32 116.271 6.611 118.755 4.613C121.257 2.615 123.966 1.616 126.882 1.616C128.412 1.616 129.753 1.85 130.905 2.318C132.057 2.768 132.939 3.218 133.551 3.668L132.822 5.072C132.138 4.316 131.319 3.659 130.365 3.101C129.411 2.525 128.151 2.237 126.585 2.237C124.011 2.219 121.806 3.101 119.97 4.883C118.134 6.665 117.216 9.068 117.216 12.092C117.216 15.872 118.296 18.545 120.456 20.111C122.616 21.677 124.884 22.46 127.26 22.46C128.808 22.46 130.14 22.217 131.256 21.731C132.39 21.245 133.191 20.84 133.659 20.516L133.902 20.84ZM143.353 2.912H143.191V23H141.49V2.912H141.328C140.482 2.912 139.483 2.966 138.331 3.074C137.179 3.182 136.369 3.398 135.901 3.722L135.793 3.641L136.468 2.264H148.213L148.888 3.641L148.78 3.722C148.312 3.398 147.502 3.182 146.35 3.074C145.198 2.966 144.199 2.912 143.353 2.912ZM153.395 17.519L164.816 15.98L158.876 4.019L153.395 17.519ZM168.299 23L165.248 16.844L153.098 18.248L151.154 23H150.236L158.444 3.128C158.372 3.002 158.282 2.912 158.174 2.858C158.066 2.786 157.94 2.723 157.796 2.669L157.715 2.642V2.156L159.983 2.318L170.297 23H168.299ZM191.066 20.84C190.4 21.434 189.455 22.019 188.231 22.595C187.007 23.171 185.549 23.459 183.857 23.459C180.869 23.459 178.178 22.496 175.784 20.57C173.39 18.644 172.193 16.034 172.193 12.74C172.193 9.32 173.435 6.611 175.919 4.613C178.421 2.615 181.13 1.616 184.046 1.616C185.576 1.616 186.917 1.85 188.069 2.318C189.221 2.768 190.103 3.218 190.715 3.668L189.986 5.072C189.302 4.316 188.483 3.659 187.529 3.101C186.575 2.525 185.315 2.237 183.749 2.237C181.175 2.219 178.97 3.101 177.134 4.883C175.298 6.665 174.38 9.068 174.38 12.092C174.38 15.872 175.46 18.545 177.62 20.111C179.78 21.677 182.048 22.46 184.424 22.46C185.972 22.46 187.304 22.217 188.42 21.731C189.554 21.245 190.355 20.84 190.823 20.516L191.066 20.84ZM195.792 23H194.037V2.264H195.792V19.679L206.376 4.586V2.264H208.131V23H206.376V5.693L195.792 20.813V23ZM212.292 23.216C211.896 23.216 211.536 23.135 211.212 22.973C210.888 22.793 210.609 22.55 210.375 22.244L210.537 22.082C210.753 22.298 210.96 22.442 211.158 22.514C211.374 22.586 211.59 22.622 211.806 22.622C212.31 22.622 212.76 22.271 213.156 21.569C213.552 20.867 213.75 19.472 213.75 17.384V15.602C213.75 13.352 214.281 11.795 215.343 10.931C216.423 10.067 217.359 9.599 218.151 9.527C217.647 9.401 216.819 8.996 215.667 8.312C214.515 7.61 213.939 6.701 213.939 5.585C213.939 4.505 214.407 3.596 215.343 2.858C216.297 2.12 217.386 1.751 218.61 1.751C219.384 1.751 219.969 1.85 220.365 2.048C220.761 2.246 221.265 2.345 221.877 2.345C222.021 2.345 222.147 2.336 222.255 2.318C222.363 2.3 222.489 2.273 222.633 2.237L222.687 2.264V23H220.932V2.966C220.626 2.768 220.302 2.606 219.96 2.48C219.636 2.336 219.24 2.264 218.772 2.264C217.926 2.264 217.233 2.57 216.693 3.182C216.171 3.794 215.91 4.595 215.91 5.585C215.91 6.809 216.315 7.736 217.125 8.366C217.953 8.996 218.835 9.392 219.771 9.554L219.825 10.175C219.645 10.067 219.474 9.995 219.312 9.959C219.15 9.923 218.979 9.905 218.799 9.905C218.205 9.905 217.503 10.283 216.693 11.039C215.901 11.777 215.505 13.298 215.505 15.602V17.708C215.505 19.526 215.181 20.903 214.533 21.839C213.903 22.757 213.156 23.216 212.292 23.216ZM232.759 12.578C232.741 9.482 233.947 6.881 236.377 4.775C238.825 2.669 241.462 1.616 244.288 1.616C247.132 1.616 249.769 2.669 252.199 4.775C254.647 6.863 255.871 9.464 255.871 12.578C255.871 15.728 254.647 18.347 252.199 20.435C249.769 22.523 247.132 23.567 244.288 23.567C241.462 23.567 238.834 22.523 236.404 20.435C233.974 18.329 232.759 15.71 232.759 12.578ZM235.054 12.551C235.054 15.593 235.936 18.095 237.7 20.057C239.464 22.001 241.66 22.973 244.288 22.973C246.934 22.973 249.139 22.001 250.903 20.057C252.685 18.113 253.576 15.62 253.576 12.578C253.576 9.554 252.685 7.07 250.903 5.126C249.139 3.182 246.934 2.21 244.288 2.21C241.66 2.21 239.455 3.191 237.673 5.153C235.909 7.097 235.036 9.563 235.054 12.551ZM277.418 20.84C276.752 21.434 275.807 22.019 274.583 22.595C273.359 23.171 271.901 23.459 270.209 23.459C267.221 23.459 264.53 22.496 262.136 20.57C259.742 18.644 258.545 16.034 258.545 12.74C258.545 9.32 259.787 6.611 262.271 4.613C264.773 2.615 267.482 1.616 270.398 1.616C271.928 1.616 273.269 1.85 274.421 2.318C275.573 2.768 276.455 3.218 277.067 3.668L276.338 5.072C275.654 4.316 274.835 3.659 273.881 3.101C272.927 2.525 271.667 2.237 270.101 2.237C267.527 2.219 265.322 3.101 263.486 4.883C261.65 6.665 260.732 9.068 260.732 12.092C260.732 15.872 261.812 18.545 263.972 20.111C266.132 21.677 268.4 22.46 270.776 22.46C272.324 22.46 273.656 22.217 274.772 21.731C275.906 21.245 276.707 20.84 277.175 20.516L277.418 20.84ZM279.877 12.578C279.859 9.482 281.065 6.881 283.495 4.775C285.943 2.669 288.58 1.616 291.406 1.616C294.25 1.616 296.887 2.669 299.317 4.775C301.765 6.863 302.989 9.464 302.989 12.578C302.989 15.728 301.765 18.347 299.317 20.435C296.887 22.523 294.25 23.567 291.406 23.567C288.58 23.567 285.952 22.523 283.522 20.435C281.092 18.329 279.877 15.71 279.877 12.578ZM282.172 12.551C282.172 15.593 283.054 18.095 284.818 20.057C286.582 22.001 288.778 22.973 291.406 22.973C294.052 22.973 296.257 22.001 298.021 20.057C299.803 18.113 300.694 15.62 300.694 12.578C300.694 9.554 299.803 7.07 298.021 5.126C296.257 3.182 294.052 2.21 291.406 2.21C288.778 2.21 286.573 3.191 284.791 5.153C283.027 7.097 282.154 9.563 282.172 12.551ZM315.248 23.216C314.474 23.216 313.763 22.865 313.115 22.163C312.485 21.443 312.17 20.075 312.17 18.059V15.116C312.17 12.776 311.846 11.237 311.198 10.499C310.568 9.761 309.947 9.392 309.335 9.392C309.065 9.392 308.813 9.428 308.579 9.5C308.345 9.572 308.138 9.689 307.958 9.851V23H306.203V2.264H307.958V9.203L313.25 2.264H314.411V2.399L309.281 8.96C309.443 8.924 309.605 8.906 309.767 8.906C310.667 8.906 311.549 9.338 312.413 10.202C313.421 11.21 313.925 12.893 313.925 15.251V17.573C313.925 19.571 314.141 20.912 314.573 21.596C315.023 22.28 315.446 22.622 315.842 22.622C316.04 22.622 316.238 22.586 316.436 22.514C316.634 22.442 316.841 22.298 317.057 22.082L317.219 22.244C316.913 22.604 316.607 22.856 316.301 23C315.995 23.144 315.644 23.216 315.248 23.216ZM320.72 23H318.965V2.264H320.72V19.679L331.304 4.586V2.264H333.059V23H331.304V5.693L320.72 20.813V23ZM336.842 23V2.264H338.597V9.662H349.181V2.264H350.936V23H349.181V10.31H338.597V23H336.842ZM356.528 17.519L367.949 15.98L362.009 4.019L356.528 17.519ZM371.432 23L368.381 16.844L356.231 18.248L354.287 23H353.369L361.577 3.128C361.505 3.002 361.415 2.912 361.307 2.858C361.199 2.786 361.073 2.723 360.929 2.669L360.848 2.642V2.156L363.116 2.318L373.43 23H371.432Z" fill="#460808"/>
<path d="M55.56 42.4922V32.0922H63.66V42.4922H62.66V32.9922H56.56V42.4922H55.56ZM71.2105 42.6922C70.4905 42.6922 69.8171 42.5522 69.1905 42.2722C68.5638 41.9789 68.0171 41.5855 67.5505 41.0922C67.0838 40.5855 66.7171 40.0055 66.4505 39.3522C66.1971 38.6989 66.0705 37.9989 66.0705 37.2522C66.0705 36.2522 66.2905 35.3522 66.7305 34.5522C67.1705 33.7522 67.7771 33.1122 68.5505 32.6322C69.3238 32.1522 70.2038 31.9122 71.1905 31.9122C72.1371 31.9122 72.9705 32.1322 73.6905 32.5722C74.4105 32.9989 74.9505 33.5855 75.3105 34.3322L74.3305 34.6522C74.0238 34.0789 73.5838 33.6322 73.0105 33.3122C72.4505 32.9789 71.8305 32.8122 71.1505 32.8122C70.3905 32.8122 69.7038 33.0055 69.0905 33.3922C68.4771 33.7789 67.9838 34.3122 67.6105 34.9922C67.2505 35.6589 67.0705 36.4122 67.0705 37.2522C67.0705 38.0789 67.2571 38.8389 67.6305 39.5322C68.0038 40.2255 68.4971 40.7789 69.1105 41.1922C69.7371 41.5922 70.4238 41.7922 71.1705 41.7922C71.6505 41.7922 72.1171 41.7055 72.5705 41.5322C73.0371 41.3455 73.4371 41.1055 73.7705 40.8122C74.1171 40.5189 74.3438 40.2055 74.4505 39.8722L75.4305 40.1522C75.2571 40.6455 74.9571 41.0855 74.5305 41.4722C74.1038 41.8455 73.6038 42.1455 73.0305 42.3722C72.4705 42.5855 71.8638 42.6922 71.2105 42.6922ZM77.6889 42.4922V32.1122H78.6889V41.1322L85.4489 32.0922H86.3689V42.4922H85.3689V33.6122L78.6889 42.4922H77.6889ZM89.3863 32.0922L92.7063 36.3922L92.8663 36.6722L93.0263 36.3922L96.3263 32.0922H97.4863L93.4463 37.3122L97.4663 42.4922H96.3063L93.0263 38.2122L92.8663 37.9522L92.7063 38.2122L89.4063 42.4922H88.2663L92.2663 37.3122L88.2463 32.0922H89.3863ZM103.748 42.6922C103.015 42.6922 102.335 42.5522 101.708 42.2722C101.095 41.9922 100.561 41.6055 100.108 41.1122C99.6548 40.6055 99.3015 40.0255 99.0481 39.3722C98.7948 38.7189 98.6681 38.0322 98.6681 37.3122C98.6681 36.5789 98.7948 35.8922 99.0481 35.2522C99.3015 34.5989 99.6548 34.0255 100.108 33.5322C100.575 33.0255 101.115 32.6322 101.728 32.3522C102.355 32.0589 103.028 31.9122 103.748 31.9122C104.468 31.9122 105.135 32.0589 105.748 32.3522C106.361 32.6322 106.901 33.0255 107.368 33.5322C107.835 34.0255 108.195 34.5989 108.448 35.2522C108.701 35.8922 108.828 36.5789 108.828 37.3122C108.828 38.0322 108.701 38.7189 108.448 39.3722C108.195 40.0255 107.835 40.6055 107.368 41.1122C106.915 41.6055 106.375 41.9922 105.748 42.2722C105.135 42.5522 104.468 42.6922 103.748 42.6922ZM99.6681 37.3522C99.6681 38.1655 99.8481 38.9122 100.208 39.5922C100.581 40.2589 101.075 40.7922 101.688 41.1922C102.301 41.5922 102.981 41.7922 103.728 41.7922C104.475 41.7922 105.155 41.5922 105.768 41.1922C106.395 40.7789 106.888 40.2322 107.248 39.5522C107.621 38.8589 107.808 38.1055 107.808 37.2922C107.808 36.4789 107.621 35.7322 107.248 35.0522C106.888 34.3722 106.395 33.8322 105.768 33.4322C105.155 33.0189 104.481 32.8122 103.748 32.8122C103.001 32.8122 102.321 33.0189 101.708 33.4322C101.095 33.8455 100.601 34.3922 100.228 35.0722C99.8548 35.7522 99.6681 36.5122 99.6681 37.3522ZM110.164 42.5322V41.6122C110.524 41.6122 110.851 41.5122 111.144 41.3122C111.437 41.0989 111.697 40.7455 111.924 40.2522C112.151 39.7589 112.331 39.0789 112.464 38.2122C112.611 37.3322 112.704 36.2255 112.744 34.8922L112.844 32.0922H119.324V42.4922H118.324V32.9922H113.744L113.704 34.9522C113.651 36.4189 113.537 37.6455 113.364 38.6322C113.204 39.6055 112.977 40.3789 112.684 40.9522C112.391 41.5122 112.031 41.9189 111.604 42.1722C111.191 42.4122 110.711 42.5322 110.164 42.5322ZM126.795 42.6922C126.062 42.6922 125.382 42.5522 124.755 42.2722C124.142 41.9922 123.608 41.6055 123.155 41.1122C122.702 40.6055 122.348 40.0255 122.095 39.3722C121.842 38.7189 121.715 38.0322 121.715 37.3122C121.715 36.5789 121.842 35.8922 122.095 35.2522C122.348 34.5989 122.702 34.0255 123.155 33.5322C123.622 33.0255 124.162 32.6322 124.775 32.3522C125.402 32.0589 126.075 31.9122 126.795 31.9122C127.515 31.9122 128.182 32.0589 128.795 32.3522C129.408 32.6322 129.948 33.0255 130.415 33.5322C130.882 34.0255 131.242 34.5989 131.495 35.2522C131.748 35.8922 131.875 36.5789 131.875 37.3122C131.875 38.0322 131.748 38.7189 131.495 39.3722C131.242 40.0255 130.882 40.6055 130.415 41.1122C129.962 41.6055 129.422 41.9922 128.795 42.2722C128.182 42.5522 127.515 42.6922 126.795 42.6922ZM122.715 37.3522C122.715 38.1655 122.895 38.9122 123.255 39.5922C123.628 40.2589 124.122 40.7922 124.735 41.1922C125.348 41.5922 126.028 41.7922 126.775 41.7922C127.522 41.7922 128.202 41.5922 128.815 41.1922C129.442 40.7789 129.935 40.2322 130.295 39.5522C130.668 38.8589 130.855 38.1055 130.855 37.2922C130.855 36.4789 130.668 35.7322 130.295 35.0522C129.935 34.3722 129.442 33.8322 128.815 33.4322C128.202 33.0189 127.528 32.8122 126.795 32.8122C126.048 32.8122 125.368 33.0189 124.755 33.4322C124.142 33.8455 123.648 34.3922 123.275 35.0722C122.902 35.7522 122.715 36.5122 122.715 37.3522ZM134.271 42.4922V32.0922H140.291V32.9922H135.271V42.4922H134.271Z" fill="#460808"/>
<path d="M10.8265 25.9729L27.3582 23.7446L18.7602 6.42684L10.8265 25.9729ZM32.3998 33.9085L27.9835 24.9956L10.3966 27.0283L7.5827 33.9085H6.25391L18.1349 5.1368C18.0306 4.95437 17.9004 4.82407 17.744 4.74588C17.5877 4.64164 17.4053 4.55042 17.1969 4.47224L17.0796 4.43315V3.72949L20.3625 3.96404L35.2919 33.9085H32.3998Z" fill="#460808"/>
<path d="M0.000343594 21.9766C-0.0308088 16.6171 2.0564 12.1144 6.26197 8.46864C10.4987 4.82288 15.0625 3 19.9534 3C24.8755 3 29.4393 4.82288 33.6449 8.46864C37.8816 12.0832 40 16.5859 40 21.9766C40 27.4297 37.8816 31.9635 33.6449 35.5781C29.4393 39.1927 24.8755 41 19.9534 41C15.0625 41 10.5143 39.1927 6.3087 35.5781C2.10313 31.9323 0.000343594 27.3985 0.000343594 21.9766ZM3.97227 21.9299C3.97227 27.196 5.49874 31.5273 8.55167 34.9237C11.6046 38.2891 15.4052 39.9717 19.9534 39.9717C24.5328 39.9717 28.349 38.2891 31.4019 34.9237C34.486 31.5584 36.0281 27.2427 36.0281 21.9766C36.0281 16.7417 34.486 12.4416 31.4019 9.07626C28.349 5.71095 24.5328 4.02829 19.9534 4.02829C15.4052 4.02829 11.589 5.72653 8.50494 9.123C5.45201 12.4883 3.94112 16.7573 3.97227 21.9299Z" fill="#460808"/>
</svg>
